Coordinates
version=1
nRows=8
nColumns=34
inDegrees=yes

Units are S.I. units (second, meters, Newtons, ...)
If the header above contains a line with 'inDegrees', this indicates whether rotational values are in degrees (yes) or radians (no).

endheader
time	pelvis_tilt	pelvis_list	pelvis_rotation	pelvis_tx	pelvis_ty	pelvis_tz	hip_flexion_r	hip_adduction_r	hip_rotation_r	knee_angle_r	ankle_angle_r	subtalar_angle_r	mtp_angle_r	hip_flexion_l	hip_adduction_l	hip_rotation_l	knee_angle_l	ankle_angle_l	subtalar_angle_l	mtp_angle_l	lumbar_extension	lumbar_bending	lumbar_rotation	arm_flex_r	arm_add_r	arm_rot_r	elbow_flex_r	pro_sup_r	arm_flex_l	arm_add_l	arm_rot_l	elbow_flex_l	pro_sup_l
      2.71666670	     -1.50876061	     -3.35140304	      1.53417417	      0.45031539	      0.98575055	     -0.09830269	     50.05121274	     -2.29036877	     -5.03760803	     42.81285760	      0.45337983	    -12.24362756	      0.00000000	     10.30750560	      4.36825789	      0.04682636	     20.39517344	     11.97269275	     -0.30920720	      0.00000000	     -7.36934499	      0.69233253	     -0.44354147	     49.73954963	     20.35045417	     42.97303641	    150.00035077	    113.41765355	     69.62365621	     20.62857052	     76.04060646	    123.13094839	     78.58390573
      2.73333330	     -1.47764117	     -3.47178427	      1.65583478	      0.44612798	      0.98741819	     -0.09908865	     50.89239865	     -2.62679086	     -5.27495297	     40.08929254	      0.62250389	    -10.62652753	      0.00000000	     10.15505230	      4.25360984	      0.26659974	     19.72959245	     12.97351315	     -0.03121826	      0.00000000	     -6.74893461	      0.16286839	     -1.81924286	     51.70206292	     23.92763893	     57.69463033	    150.00035077	    114.18030993	     69.21780592	     19.94570642	     76.37243456	    122.53287494	     78.81922847
      2.75000000	     -1.22102265	     -3.57030456	      1.46453359	      0.45040062	      0.98522013	     -0.09842360	     51.45104623	     -2.61926565	     -5.07438219	     37.84332378	      0.49004403	    -10.37560193	      0.00000000	      9.48565340	      4.13995926	      0.39230715	     19.17914629	     13.37474876	     -0.18032736	      0.00000000	     -7.13502428	      0.24895420	     -1.40740534	     52.06549449	     23.12048123	     59.25579043	    150.00035077	    114.60695287	     69.14125559	     19.69141282	     75.86293736	    122.73513793	     78.75594340
      2.76666670	     -1.30969193	     -3.66371225	      1.64710075	      0.44673125	      0.98210999	     -0.09834367	     52.42730638	     -2.84224449	     -5.03153026	     35.34379493	      0.15253630	     -9.37299396	      0.00000000	      9.93848738	      4.04363543	      0.35618387	     19.69322511	     13.38435679	      0.03387017	      0.00000000	     -6.66513957	     -0.37649027	     -2.04379946	     53.73570686	     25.82981808	     68.63390529	    150.00035077	    116.03154659	     68.94502884	     19.65450225	     76.68730485	    121.88989665	     78.60449945
      2.78333330	     -1.22288595	     -3.82153333	      1.63887401	      0.44732271	      0.98147018	     -0.09798288	     52.92223191	     -2.88854146	     -5.22332396	     32.47280394	     -1.12365307	     -9.06069684	      0.00000000	     10.05768360	      3.80623995	      0.63943822	     19.54973498	     13.62205621	     -0.08976920	      0.00000000	     -7.00656396	     -0.12382314	     -1.80925253	     53.93713773	     24.46441747	     67.15315620	    150.00035077	    116.38569918	     69.59433866	     19.33774793	     75.94020192	    122.13184823	     78.36365788
      2.80000000	     -1.24567845	     -3.94475191	      1.57584979	      0.44849285	      0.98568807	     -0.09778327	     53.14424646	     -2.87653446	     -5.21950974	     29.58959609	     -2.35294120	     -9.15344124	      0.00000000	      9.94843072	      3.65875294	      1.07186830	     18.86893982	     13.52370017	     -0.78991913	      0.00000000	     -7.72973851	      0.43259877	     -0.50151567	     54.02123683	     22.26219744	     63.30748049	    150.00035077	    116.49964457	     70.04887483	     20.33893159	     76.03686935	    122.94260056	     78.24046638
      2.81666670	     -0.91488621	     -4.09291863	      1.39389380	      0.44602705	      0.98687452	     -0.09801401	     52.76681855	     -2.74710503	     -5.20626507	     26.40402407	     -3.38263925	     -8.34741465	      0.00000000	      9.53056438	      3.48963617	      1.27624619	     18.53719799	     13.05619341	     -1.64007358	      0.00000000	     -8.71923808	      0.88851140	      0.27129200	     54.18475611	     20.76458421	     58.96888678	    150.00035077	    116.43951037	     70.63267618	     20.65344118	     75.58116848	    123.36050134	     78.14318551
      2.83333330	     -0.84705266	     -4.14932374	      1.21900268	      0.44789282	      0.98418142	     -0.09697534	     52.86161380	     -2.62811639	     -5.08343747	     24.14009794	     -4.03584597	     -7.74195895	      0.00000000	      9.38439133	      3.45476821	      1.29135372	     18.54268146	     12.32015475	     -2.65471874	      0.00000000	     -8.33217520	      0.36077100	     -0.70245281	     54.82259022	     23.14933844	     63.43620718	    150.00035077	    116.89112531	     70.44407939	     20.37727794	     75.63339957	    122.63143204	     78.04111358
